{"title":"Black Death 2010 DVDrip English Klam","uid":6716587,"size":1645403195,"categoryP":"video","categoryS":"movies","magnet":"?xt=urn:btih:5c7cfc4136cd23705b1f758ddb3d6d50012349cc&amp;dn=Black+Death+2010+DVDrip+English+Klam&amp;tr=udp%3A%2F%2Ftracker.openbittorrent.com%3A80&amp;tr=udp%3A%2F%2Fopen.demonii.com%3A1337&amp;tr=udp%3A%2F%2Ftracker.coppersurfer.tk%3A6969&amp;tr=udp%3A%2F%2Fexodus.desync.com%3A6969","seeders":1,"leechers":0,"uploader":"Klambake","files":-1,"time":1317582700,"description":"With: Eddie Redmayne, Sean Bean en Carice van Houten\n\nHet Middeleeuwse Engeland wordt geteisterd door de pest. Lijken liggen bij honderden verspreid en het land is ondergedompeld in chaos. De kerk verliest zijn greep op de bevolking, bij wie de angst overheerst. Er is echter een dorp dat vooralsnog gespaard lijkt te blijven voor de ziekte. Het is veraf gelegen, omringd door moeras. Er wordt gefluisterd dat het dorp geleid wordt door een tovenares. Deze Langiva (Carice van Houten) zou doden weer tot leven kunnen wekken. De gevreesde ridder Ulrich (Sean Bean) krijgt van de kerk de opdracht deze geruchten te onderzoeken. Als gids neemt hij de jonge monnik Osmund (Eddie Redmayne) mee, die hem en zijn bende huurlingen als gezant van God veilig door het moerasland naar het dorp moet leiden. De reis is vol gevaren, maar pas in het dorp zelf stuiten ze op de ultieme gruwel.\n\nSet during the time of the first outbreak of bubonic plague in England, a young monk is tasked with learning the truth about reports of people being brought back to life in a small village. \n\n------------------ Dutch Friends ------------------\nYou can find my Friends at: http://www.Film-Test.nl \n------ They got my dutch subs ----- and more ------\n\nGeneral:\n\nComplete name                    : Black Death\\Black Death.avi\nFormat                           : AVI\nFormat/Info                      : Audio Video Interleave\nFile size                        : 1.53 GiB\nDuration                         : 1h 37mn\nOverall bit rate                 : 2 243 Kbps\n\nVideo:\n\nFormat                           : MPEG-4 Visual\nFormat profile                   : Simple@L3\nFormat settings, BVOP            : No\nFormat settings, QPel            : No\nFormat settings, GMC             : No warppoints\nFormat settings, Matrix          : Default (H.263)\nCodec ID                         : XVID\nCodec ID/Hint                    : XviD\nDuration                         : 1h 37mn\nBit rate                         : 2 008 Kbps\nWidth                            : 720 pixels\nHeight                           : 304 pixels\nDisplay aspect ratio             : 2.35:1\nFrame rate                       : 25.000 fps\nColor space                      : YUV\nChroma subsampling               : 4:2:0\nBit depth                        : 8 bits\nScan type                        : Progressive\nBits/(Pixel*Frame)               : 0.367\nStream size                      : 1.37 GiB (90%)\nWriting library                  : XviD 1.1.2 (UTC 2006-11-01)\n\nAudio:\n\nFormat                           : AC-3\nFormat/Info                      : Audio Coding 3\nMode extension                   : CM (complete main)\nCodec ID                         : 2000\nDuration                         : 1h 37mn\nBit rate mode                    : Constant\nBit rate                         : 224 Kbps\nChannel(s)                       : 6 channels\nChannel positions                : Front: L C R, Side: L R, LFE\nSampling rate                    : 48.0 KHz\nBit depth                        : 16 bits\nStream size                      : 156 MiB (10%)\nAlignment                        : Aligned on interleaves\nInterleave, duration             : 32 ms (0.80 video frame)\nInterleave, preload duration     : 256 ms\n\n","torrent":{"xt":"urn:btih:5c7cfc4136cd23705b1f758ddb3d6d50012349cc","amp;dn":"Black+Death+2010+DVDrip+English+Klam","amp;tr":["udp%3A%2F%2Ftracker.openbittorrent.com%3A80","udp%3A%2F%2Fopen.demonii.com%3A1337","udp%3A%2F%2Ftracker.coppersurfer.tk%3A6969","udp%3A%2F%2Fexodus.desync.com%3A6969"],"infoHash":"5c7cfc4136cd23705b1f758ddb3d6d50012349cc","infoHashBuffer":{"type":"Buffer","data":[92,124,252,65,54,205,35,112,91,31,117,141,219,61,109,80,1,35,73,204]},"announce":[],"urlList":[]}}